<?xml version="1.0" standalone="no"?>
<!DOCTYPE svg PUBLIC "-//W3C//DTD SVG 20010904//EN"
 "http://www.w3.org/TR/2001/REC-SVG-20010904/DTD/svg10.dtd">
<svg version="1.0" xmlns="http://www.w3.org/2000/svg"
 width="1500.000000pt" height="1500.000000pt" viewBox="0 0 1500.000000 1500.000000"
 preserveAspectRatio="xMidYMid meet">
<metadata>
Created by potrace 1.11, written by Peter Selinger 2001-2013
</metadata>
<g transform="translate(0.000000,1500.000000) scale(0.100000,-0.100000)"
fill="#000000" stroke="none">
<path d="M7185 14894 c-342 -21 -536 -40 -795 -80 -2336 -355 -4377 -1855
-5424 -3989 -407 -827 -633 -1647 -723 -2615 -24 -261 -24 -929 0 -1190 23
-241 50 -453 88 -670 311 -1797 1312 -3434 2778 -4544 l101 -77 0 1790 c0
1170 4 1825 10 1892 56 552 311 1067 731 1474 417 404 942 651 1529 720 105
13 377 15 1676 15 970 0 1598 4 1677 10 254 21 445 106 599 267 286 302 346
811 143 1213 -104 205 -281 366 -484 440 -174 64 22 60 -3067 60 l-2814 0 0
1060 0 1060 2843 0 c1853 0 2884 -4 2962 -10 730 -63 1364 -355 1867 -862 490
-494 802 -1142 905 -1878 27 -194 24 -607 -6 -800 -95 -616 -329 -1146 -713
-1613 -101 -122 -328 -343 -448 -436 -407 -316 -878 -518 -1378 -590 -75 -11
-155 -23 -177 -27 -22 -3 -803 -9 -1735 -13 l-1695 -6 -57 -28 c-101 -50 -179
-143 -221 -267 l-22 -65 -3 -2237 -2 -2236 47 -16 c204 -67 622 -166 888 -210
465 -78 738 -100 1240 -100 502 0 776 22 1240 100 1679 281 3248 1187 4352
2511 895 1074 1452 2347 1632 3733 45 345 55 508 55 935 0 427 -10 590 -55
935 -105 809 -328 1550 -684 2275 -664 1349 -1726 2459 -3051 3186 -898 493
-1869 780 -2944 869 -126 11 -754 21 -865 14z"/>
</g>
</svg>
