<?xml version="1.0" encoding="utf-8"?>
<svg width="6454" height="860" 
    xmlns="http://www.w3.org/2000/svg">
    <style type="text/css"> .st0{fill:#4466C7;}</style>
    <path class="st0" d="M471.5 0H0v180.4h471.5c104.6 0 110.1 169.2 0 169.2H220.3C94.6 349.6 0 447.9 0 556.2V860h180.7V569.1c0-20.6 14.6-38.9 33.2-38.9h257.6c166.6 0 260.4-139.7 260.4-263C731.9 137.5 635.1 0 471.5 0zM869 0h393.4c109 0 192.6 29.1 250.8 87.2 49.2 49.1 73.8 114.7 73.8 196.6v2.5c0 69.6-17.1 126.4-51.2 170.2s-78.7 76-133.8 96.4L1612.2 860H1391l-184.3-275H1058v275H869zm380.9 418c46.7 0 82.6-11 107.6-33.2 25-22.1 37.5-51.6 37.5-88.5v-2.5c0-41-13.1-71.7-39.4-92.2-26.2-20.5-62.7-30.7-109.5-30.7H1058v247h191.9zM3003.9 175h-261.8V0h712.6v175h-261.8v685h-189V175zM3608.6 0h189v860h-189zM4012.6 0H4406c109 0 192.6 29.1 250.8 87.2 49.2 49.1 73.8 114.7 73.8 196.6v2.5c0 69.6-17.1 126.4-51.2 170.2s-78.7 76-133.8 96.4L4755.8 860h-221.2l-184.3-275h-148.7v275h-189V0zm380.9 418c46.7 0 82.6-11 107.6-33.2 25-22.1 37.5-51.6 37.5-88.5v-2.5c0-41-13.1-71.7-39.4-92.2-26.2-20.5-62.7-30.7-109.5-30.7h-188.2v247h192zM5254.6 860c-113.6 0-203-31.4-268.2-94.3s-97.9-156.8-97.9-281.8V0h186v478.7c0 69.3 16.1 121.5 48.4 156.5 32.2 35.1 77 52.6 134.2 52.6s101.9-16.9 134.2-50.8c32.2-33.8 48.4-84.6 48.4-152.3V0h186v477.8c0 64.5-8.7 120.6-26 168.1-17.3 47.6-42.1 87.3-74.3 119.2s-71.3 55.6-117.2 71.4c-46.1 15.6-97.2 23.5-153.6 23.5zM6148 860c-63.7 0-126.2-10.9-187.5-32.8s-117-55.5-167.2-100.8L5902 596.2c38.2 31.1 77.4 55.7 117.6 74s84.2 27.5 132 27.5c38.2 0 67.9-7 89-20.9s31.7-33.3 31.7-57.9v-2.4c0-11.9-2.2-22.5-6.6-31.7s-12.8-17.7-25.2-25.7-29.6-15.9-51.5-23.9c-22-8-50.5-16.3-85.7-25.1-42.3-10.3-80.7-21.9-115-34.6-34.4-12.7-63.5-28.5-87.5-47.2s-42.5-42-55.7-69.9-19.8-62.5-19.8-103.9v-2.4c0-38.2 7.1-72.7 21.4-103.3 14.2-30.7 34.2-57.2 60-79.5 25.7-22.3 56.5-39.4 92.2-51.4 35.6-11.9 75-17.9 118-17.9 61.3 0 117.6 9.2 169 27.5s98.5 44.5 141.5 78.7l-95.5 138.5c-37.4-25.5-74.1-45.6-109.9-60.3s-71.7-22.1-107.5-22.1-62.7 7-80.6 20.9-26.9 31.3-26.9 52v2.4c0 13.5 2.6 25.3 7.8 35.3s14.6 18.9 28.2 26.9 32.2 15.5 55.7 22.7c23.6 7.2 53.3 15.5 89.3 25.1 42.3 11.2 80.1 23.7 113.2 37.6 33.2 13.9 61.1 30.7 83.9 50.2s39.9 42.4 51.5 68.7 17.4 57.7 17.4 94.4v2.4c0 41.4-7.5 78.3-22.6 110.5-15 32.2-36 59.3-63 81.2-26.9 21.9-59 38.6-96.4 50.2-37.2 11.4-78.6 17.2-124 17.2zM2177.5 860c-64.1 0-123-11.3-176.8-33.8s-100.2-53-139.4-91.3-69.6-83.4-91.4-135.2c-21.7-51.8-32.6-107.3-32.6-166.6v-2.4c0-59.3 11.1-114.8 33.2-166.6s52.8-97.2 91.9-136.4c39.1-39.1 85.8-70 140-92.5s113.3-33.8 177.4-33.8 123 11.3 176.8 33.8 100.2 53 139.4 91.3c39.1 38.3 69.6 83.4 91.3 135.2s32.6 107.3 32.6 166.6v2.4c0 59.3-11.1 114.8-33.2 166.6-22.2 51.8-52.8 97.2-91.9 136.4-39.2 39.1-85.8 70-140 92.5-54.1 22.6-113.2 33.8-177.3 33.8zm2.4-168.8c36.4 0 70-6.7 100.8-20.1s57.1-32 78.9-55.6c21.7-23.7 38.8-51.1 51-82.3 12.3-31.2 18.4-64.5 18.4-100.1v-2.4c0-35.5-6.1-69.1-18.4-100.6-12.3-31.6-29.7-59.2-52.2-82.9s-49.2-42.4-80.1-56.2c-30.8-13.8-64.5-20.7-100.8-20.7-37.2 0-71 6.7-101.4 20.1s-56.6 32-78.3 55.6c-21.7 23.7-38.8 51.1-51 82.3-12.3 31.2-18.4 64.5-18.4 100v2.4c0 35.5 6.1 69.1 18.4 100.6 12.3 31.6 29.6 59.2 52.2 82.9 22.5 23.7 49 42.4 79.5 56.2 30.4 13.9 64.2 20.8 101.4 20.8z"/>
</svg>